<?xml version="1.0" encoding="UTF-8" standalone="no"?>
<!-- Created with Inkscape (http://www.inkscape.org/) -->

<svg
   width="210mm"
   height="297mm"
   viewBox="0 0 210 297"
   version="1.1"
   id="svg1"
   xml:space="preserve"
   inkscape:version="1.4.2 (ebf0e940d0, 2025-05-08)"
   sodipodi:docname="hattifnattutanögon.svg"
   xmlns:inkscape="http://www.inkscape.org/namespaces/inkscape"
   xmlns:sodipodi="http://sodipodi.sourceforge.net/DTD/sodipodi-0.dtd"
   xmlns="http://www.w3.org/2000/svg"
   xmlns:svg="http://www.w3.org/2000/svg"><sodipodi:namedview
     id="namedview1"
     pagecolor="#ffffff"
     bordercolor="#000000"
     borderopacity="0.25"
     inkscape:showpageshadow="2"
     inkscape:pageopacity="0.0"
     inkscape:pagecheckerboard="0"
     inkscape:deskcolor="#d1d1d1"
     inkscape:document-units="mm"
     inkscape:zoom="2.9304259"
     inkscape:cx="396.87064"
     inkscape:cy="561.18123"
     inkscape:window-width="1920"
     inkscape:window-height="1011"
     inkscape:window-x="0"
     inkscape:window-y="0"
     inkscape:window-maximized="1"
     inkscape:current-layer="layer1" /><defs
     id="defs1" /><g
     inkscape:label="Lager 1"
     inkscape:groupmode="layer"
     id="layer1"><path
       style="fill:#000000"
       d="m 108.00195,234.04146 c 1.24654,-17.34561 4.94762,-34.64213 3.34167,-52.09467 -1.36829,2.26258 -6.98016,6.25305 -5.2421,0.76216 0.73943,-1.8301 -5.23225,1.04585 -2.48641,-2.73329 4.44337,-3.64513 -4.604835,-1.61907 -0.76903,-5.33105 2.02547,-1.82064 -3.752053,-2.96531 0.64433,-4.44936 4.26388,0.0945 -1.61908,-6.28561 3.70174,-4.0946 6.25751,5.24215 1.52378,-5.65583 2.56676,-8.90598 -0.11017,-6.07469 0.28171,-12.18075 0.18419,-18.22028 1.5447,-8.11891 14.47813,-7.11139 14.58577,1.21588 2.37165,9.2426 0.24658,18.83777 1.45662,28.19861 0.19123,-3.01646 5.66017,-7.50241 6.56333,-2.67837 5.31668,-2.33747 -0.24252,5.15638 4.62204,3.65284 2.53579,2.68685 -5.19835,3.86683 -0.25189,6.07849 4.12754,4.81216 -9.81967,-0.27613 -4.65967,5.32315 1.53065,6.61673 -6.97166,-4.49044 -5.05462,1.78304 0.81338,14.27667 0.27164,28.59502 -0.83555,42.84052 2.91796,7.273 -5.10007,10.95842 -10.78992,8.03488 -2.534,0.10595 -5.0365,0.62244 -7.57726,0.61803 z m 5.95215,-1.76053 c 5.44778,1.89716 14.18568,1.33821 11.57456,-6.5727 0.98515,-15.86944 2.01973,-31.83298 0.37348,-47.69684 0.67306,-4.26133 6.48205,7.87381 4.69729,1.21155 -6.76533,-5.60355 11.09363,-0.17676 3.89685,-3.82163 -4.01969,0.0567 -4.56774,-2.36879 -0.35112,-2.4287 4.68008,-2.3764 -1.34819,-3.81439 -2.8748,-0.67536 -5.03124,2.25705 6.96263,-7.47996 0.65296,-5.13975 -0.92429,3.20428 -6.27833,5.63657 -2.2911,1.14125 3.06061,-4.34627 -2.18063,-4.34356 -2.24179,-0.0514 -4.24666,4.71077 -2.06659,-6.28272 -2.6585,-8.76973 -0.0667,-7.53143 0.63204,-15.48177 -2.21731,-22.59665 -5.04892,-7.08139 -14.33327,0.92998 -11.84645,7.87934 -0.37993,8.10997 0.0143,16.27844 1.06219,24.292 -0.39779,6.45204 -4.76934,-6.06479 -5.90172,-0.82515 2.32211,1.75448 5.51452,5.46762 0.2779,3.15723 -6.189021,-0.35386 0.78944,1.78923 2.75262,2.92298 -2.54387,-0.65091 -8.57845,2.69072 -2.90162,2.05339 6.70695,-2.397 -0.46408,2.49201 -1.4348,4.45188 2.08518,-0.84792 8.23466,-4.3952 3.66407,0.11546 -3.38326,4.17256 1.64819,3.51293 2.20321,-0.26248 3.89857,-2.91922 1.64568,7.05568 2.2949,9.3711 -0.13399,14.11183 -2.20579,28.09876 -3.91509,42.07944 0.78058,2.36746 3.70128,0.46287 5.18427,0.16475 z"
       id="path1"
       sodipodi:nodetypes="cccccccccccccccccccsccccccccccccccccccccccss" /></g></svg>
